<svg width="640" height="480" viewBox="0 0 640 480" fill="none" xmlns="http://www.w3.org/2000/svg">
  <rect width="640" height="480" rx="32" fill="#F8FAFC"/>
  <rect x="48" y="64" width="544" height="352" rx="28" fill="#FFFFFF" stroke="#E2E8F0" stroke-width="2"/>
  <rect x="96" y="120" width="256" height="28" rx="14" fill="#1D4ED8" opacity="0.1"/>
  <rect x="96" y="168" width="320" height="16" rx="8" fill="#0F172A" opacity="0.12"/>
  <rect x="96" y="196" width="280" height="16" rx="8" fill="#0F172A" opacity="0.08"/>
  <rect x="96" y="224" width="200" height="16" rx="8" fill="#0F172A" opacity="0.08"/>
  <rect x="96" y="268" width="140" height="44" rx="22" fill="#1D4ED8"/>
  <rect x="384" y="150" width="176" height="120" rx="24" fill="#0F172A"/>
  <rect x="404" y="174" width="136" height="24" rx="12" fill="#FFFFFF" opacity="0.9"/>
  <rect x="416" y="212" width="112" height="12" rx="6" fill="#FFFFFF" opacity="0.6"/>
  <circle cx="416" cy="308" r="28" fill="#0F172A"/>
  <circle cx="512" cy="308" r="28" fill="#0F172A"/>
  <circle cx="416" cy="308" r="12" fill="#1D4ED8"/>
  <circle cx="512" cy="308" r="12" fill="#1D4ED8"/>
</svg>
